Coordinates
version=1
nRows=16
nColumns=30
inDegrees=yes

Units are S.I. units (second, meters, Newtons, ...)
Angles are in degrees.

endheader
time	floatyaw	floatroll	floatpitch	floatx	floaty	floatz	pro_sup_l	deviation_l	flexion_l	cmc_flexion_l	cmc_abduction_l	mp_flexion_l	ip_flexion_l	2mcp_flexion_l	2mcp_abduction_l	2pm_flexion_l	2md_flexion_l	3mcp_flexion_l	3mcp_abduction_l	3pm_flexion_l	3md_flexion_l	4mcp_flexion_l	4mcp_abduction_l	4pm_flexion_l	4md_flexion_l	5mcp_flexion_l	5mcp_abduction_l	5pm_flexion_l	5md_flexion_l
-1.495000	-3.856690	-4.835354	96.479781	-0.109660	-0.183734	-0.040569	86.942613	-0.330223	-2.615656	18.832064	4.250102	-21.191816	-34.156761	36.387785	10.297318	47.050352	34.257103	20.231532	4.893581	46.388913	32.755231	8.583020	-5.021655	61.323864	42.499823	0.909719	-9.063975	61.504417	43.256824
-1.485000	-3.856690	-4.835354	96.479781	-0.109653	-0.183760	-0.040578	86.930987	-0.329449	-2.631368	18.821475	4.260805	-21.185442	-34.152344	36.397936	10.296938	47.060606	34.262317	20.244202	4.895931	46.390497	32.755960	8.584119	-5.020576	61.344537	42.512091	0.920843	-9.075337	61.526229	43.262152
-1.475000	-3.856690	-4.835354	96.479781	-0.109647	-0.183787	-0.040589	86.916593	-0.329690	-2.647864	18.810246	4.278466	-21.179224	-34.150545	36.409109	10.294164	47.078345	34.270162	20.253655	4.898657	46.397103	32.759154	8.586667	-5.018161	61.366543	42.523428	0.940070	-9.091094	61.543420	43.264569
-1.465000	-3.856690	-4.835354	96.479781	-0.109642	-0.183812	-0.040600	86.900152	-0.331296	-2.662960	18.798175	4.300932	-21.172523	-34.149640	36.419946	10.289941	47.099248	34.278967	20.259749	4.901266	46.407029	32.764986	8.590280	-5.014813	61.387064	42.533159	0.964237	-9.107490	61.559327	43.266579
-1.455000	-3.856690	-4.835354	96.479781	-0.109639	-0.183834	-0.040613	86.883963	-0.333592	-2.675074	18.785765	4.325161	-21.164305	-34.147121	36.428866	10.286652	47.117129	34.286438	20.264744	4.903370	46.417068	32.772378	8.594305	-5.011697	61.404252	42.541053	0.987909	-9.119972	61.576969	43.270910
-1.445000	-3.856690	-4.835354	96.479781	-0.109635	-0.183851	-0.040626	86.870666	-0.335195	-2.684138	18.773649	4.348475	-21.154138	-34.141009	36.435615	10.286678	47.126463	34.290594	20.272297	4.904794	46.424124	32.779605	8.598446	-5.010240	61.417909	42.547710	1.004212	-9.124223	61.598606	43.279746
-1.435000	-3.856690	-4.835354	96.479781	-0.109631	-0.183864	-0.040639	86.861564	-0.334836	-2.691594	18.761959	4.370016	-21.142678	-34.130711	36.441900	10.290951	47.124944	34.290691	20.285455	4.905632	46.427055	32.785367	8.603160	-5.011464	61.429081	42.554392	1.007679	-9.117881	61.625184	43.293702
-1.425000	-3.856690	-4.835354	96.479781	-0.109625	-0.183874	-0.040653	86.855724	-0.332063	-2.699511	18.750217	4.391124	-21.131424	-34.117042	36.450629	10.298411	47.114555	34.287699	20.304929	4.906160	46.427696	32.789752	8.609442	-5.015492	61.439120	42.562590	0.997037	-9.101635	61.656079	43.311252
-1.415000	-3.856690	-4.835354	96.479781	-0.109616	-0.183884	-0.040666	86.850527	-0.327366	-2.709488	18.737898	4.413999	-21.121943	-34.101595	36.464325	10.306622	47.100491	34.283954	20.328836	4.906591	46.430207	32.794332	8.618195	-5.021487	61.449094	42.573645	0.975640	-9.078626	61.689661	43.329336
-1.405000	-3.856690	-4.835354	96.479781	-0.109605	-0.183897	-0.040680	86.843329	-0.321614	-2.722052	18.725143	4.439348	-21.115117	-34.085982	36.483788	10.312965	47.088541	34.281964	20.354001	4.906859	46.438747	32.801063	8.629830	-5.028052	61.459802	42.588444	0.949189	-9.052426	61.724442	43.344977
-1.395000	-3.856690	-4.835354	96.479781	-0.109593	-0.183913	-0.040696	86.833115	-0.315269	-2.736749	18.712930	4.464683	-21.110938	-34.071440	36.507714	10.315656	47.082404	34.282923	20.377775	4.906626	46.454660	32.810558	8.644348	-5.033851	61.471888	42.606971	0.922552	-9.025096	61.759775	43.356851
-1.385000	-3.856690	-4.835354	96.479781	-0.109581	-0.183932	-0.040714	86.820957	-0.308069	-2.752536	18.702468	4.484733	-21.108955	-34.058949	36.533238	10.314192	47.082277	34.285821	20.399081	4.905561	46.475003	32.821010	8.661527	-5.038031	61.485526	42.627793	0.898035	-8.996861	61.795319	43.365649
-1.375000	-3.856690	-4.835354	96.479781	-0.109570	-0.183951	-0.040734	86.808932	-0.299557	-2.768092	18.694317	4.494090	-21.108912	-34.049520	36.556929	10.309300	47.085386	34.287888	20.418186	4.903647	46.493752	32.828788	8.680667	-5.040204	61.499926	42.648056	0.876056	-8.967649	61.829672	43.373012
-1.365000	-3.856690	-4.835354	96.479781	-0.109561	-0.183968	-0.040756	86.798313	-0.290073	-2.781954	18.687949	4.490618	-21.110949	-34.044201	36.575689	10.302623	47.088100	34.286372	20.435629	4.901256	46.505179	32.830604	8.699967	-5.040185	61.513421	42.664479	0.857062	-8.939059	61.859559	43.379989
-1.355000	-3.856690	-4.835354	96.479781	-0.109556	-0.183982	-0.040776	86.788534	-0.281273	-2.792694	18.682096	4.477277	-21.115157	-34.043564	36.587432	10.296172	47.088393	34.280654	20.451228	4.898906	46.507143	32.825847	8.716271	-5.037938	61.524444	42.675103	0.842531	-8.914815	61.880793	43.386294
-1.345000	-3.856690	-4.835354	96.479781	-0.109554	-0.183992	-0.040792	86.777745	-0.275561	-2.799306	18.675608	4.460897	-21.120869	-34.046981	36.591702	10.291566	47.087223	34.273283	20.463896	4.896934	46.501978	32.817340	8.725872	-5.033827	61.532770	42.680648	0.834026	-8.898988	61.890833	43.390945
